<mxfile host="Electron" agent="Mozilla/5.0 (Windows NT 10.0; Win64; x64) AppleWebKit/537.36 (KHTML, like Gecko) draw.io/28.1.2 Chrome/138.0.7204.243 Electron/37.4.0 Safari/537.36" version="28.1.2">
  <diagram name="Page-1" id="1v9y9RYPtQIX7lsZfYlW">
    <mxGraphModel dx="2722" dy="1138" grid="1" gridSize="10" guides="1" tooltips="1" connect="1" arrows="1" fold="1" page="1" pageScale="1" pageWidth="827" pageHeight="1169" math="0" shadow="0">
      <root>
        <mxCell id="0" />
        <mxCell id="1" parent="0" />
        <mxCell id="YyTxWso4TUa3Zfor6lMz-1" value="" style="rounded=0;whiteSpace=wrap;html=1;fillColor=none;dashed=1;strokeColor=#B2B2B2;" parent="1" vertex="1">
          <mxGeometry x="-199.99" y="120" width="164.75" height="520" as="geometry" />
        </mxCell>
        <mxCell id="YyTxWso4TUa3Zfor6lMz-2" value="Sources" style="rounded=0;whiteSpace=wrap;html=1;fontSize=24;strokeColor=none;" parent="1" vertex="1">
          <mxGeometry x="-155.25" y="140" width="120" height="20" as="geometry" />
        </mxCell>
        <mxCell id="YyTxWso4TUa3Zfor6lMz-3" value="" style="rounded=0;whiteSpace=wrap;html=1;fillColor=none;dashed=1;strokeColor=#A6A6A6;" parent="1" vertex="1">
          <mxGeometry y="120" width="880" height="520" as="geometry" />
        </mxCell>
        <mxCell id="YyTxWso4TUa3Zfor6lMz-4" value="&lt;br&gt;&lt;br&gt;&lt;br&gt;&lt;br&gt;&lt;br&gt;Machine Learning" style="rounded=0;whiteSpace=wrap;html=1;fillColor=none;dashed=1;strokeColor=#B2B2B2;" parent="1" vertex="1">
          <mxGeometry x="920" y="120" width="160" height="520" as="geometry" />
        </mxCell>
        <mxCell id="YyTxWso4TUa3Zfor6lMz-5" value="Data warehouse" style="rounded=0;whiteSpace=wrap;html=1;fontSize=24;strokeColor=none;" parent="1" vertex="1">
          <mxGeometry x="290" y="110" width="220" height="20" as="geometry" />
        </mxCell>
        <mxCell id="YyTxWso4TUa3Zfor6lMz-6" value="Consume" style="rounded=0;whiteSpace=wrap;html=1;fontSize=24;strokeColor=none;" parent="1" vertex="1">
          <mxGeometry x="930" y="110" width="120" height="20" as="geometry" />
        </mxCell>
        <mxCell id="YyTxWso4TUa3Zfor6lMz-7" value="&lt;b&gt;Bronze Layer&lt;/b&gt;" style="rounded=0;whiteSpace=wrap;html=1;fillColor=#ffe6cc;strokeColor=#d79b00;" parent="1" vertex="1">
          <mxGeometry x="40" y="140" width="240" height="20" as="geometry" />
        </mxCell>
        <mxCell id="YyTxWso4TUa3Zfor6lMz-8" value="" style="rounded=0;whiteSpace=wrap;html=1;fillColor=none;strokeColor=#d79b00;" parent="1" vertex="1">
          <mxGeometry x="40" y="170" width="240" height="450" as="geometry" />
        </mxCell>
        <mxCell id="YyTxWso4TUa3Zfor6lMz-9" value="&lt;b&gt;Silver Layer&lt;/b&gt;" style="rounded=0;whiteSpace=wrap;html=1;fillColor=#f5f5f5;strokeColor=#666666;fontColor=#333333;" parent="1" vertex="1">
          <mxGeometry x="320.5" y="140" width="239.5" height="20" as="geometry" />
        </mxCell>
        <mxCell id="YyTxWso4TUa3Zfor6lMz-10" value="" style="rounded=0;whiteSpace=wrap;html=1;fillColor=none;strokeColor=#666666;fontColor=#333333;" parent="1" vertex="1">
          <mxGeometry x="320.5" y="170" width="240" height="450" as="geometry" />
        </mxCell>
        <mxCell id="YyTxWso4TUa3Zfor6lMz-11" value="&lt;b&gt;Gold Layer&lt;/b&gt;" style="rounded=0;whiteSpace=wrap;html=1;fillColor=#fff2cc;strokeColor=#d6b656;" parent="1" vertex="1">
          <mxGeometry x="600" y="140" width="240" height="20" as="geometry" />
        </mxCell>
        <mxCell id="YyTxWso4TUa3Zfor6lMz-12" value="" style="rounded=0;whiteSpace=wrap;html=1;fillColor=none;strokeColor=#d6b656;" parent="1" vertex="1">
          <mxGeometry x="600" y="170" width="240" height="450" as="geometry" />
        </mxCell>
        <mxCell id="YyTxWso4TUa3Zfor6lMz-14" value="CRM&lt;div&gt;&lt;br&gt;&lt;/div&gt;" style="image;aspect=fixed;html=1;points=[];align=center;fontSize=12;image=img/lib/azure2/general/Folder_Blank.svg;" parent="1" vertex="1">
          <mxGeometry x="-144.25" y="200" width="49.29" height="40" as="geometry" />
        </mxCell>
        <mxCell id="YyTxWso4TUa3Zfor6lMz-15" value="" style="image;aspect=fixed;html=1;points=[];align=center;fontSize=12;image=img/lib/azure2/general/File.svg;" parent="1" vertex="1">
          <mxGeometry x="-111.47999999999999" y="215" width="24.35" height="30" as="geometry" />
        </mxCell>
        <mxCell id="YyTxWso4TUa3Zfor6lMz-16" value="ERP" style="image;aspect=fixed;html=1;points=[];align=center;fontSize=12;image=img/lib/azure2/general/Folder_Blank.svg;" parent="1" vertex="1">
          <mxGeometry x="-144.25" y="280" width="49.29" height="40" as="geometry" />
        </mxCell>
        <mxCell id="YyTxWso4TUa3Zfor6lMz-21" value="" style="image;aspect=fixed;html=1;points=[];align=center;fontSize=12;image=img/lib/azure2/general/File.svg;" parent="1" vertex="1">
          <mxGeometry x="-111.47999999999999" y="300" width="24.35" height="30" as="geometry" />
        </mxCell>
        <mxCell id="YyTxWso4TUa3Zfor6lMz-24" value="&lt;font style=&quot;font-size: 11px;&quot;&gt;&lt;b style=&quot;&quot;&gt;Object Type:&lt;/b&gt; CSV Files&lt;/font&gt;" style="text;html=1;align=center;verticalAlign=middle;whiteSpace=wrap;rounded=0;" parent="1" vertex="1">
          <mxGeometry x="-184.36" y="365" width="129.5" height="30" as="geometry" />
        </mxCell>
        <mxCell id="YyTxWso4TUa3Zfor6lMz-25" value="&lt;font style=&quot;font-size: 11px;&quot;&gt;&lt;b style=&quot;&quot;&gt;Interface:&lt;/b&gt; Files in Folder&lt;/font&gt;" style="text;html=1;align=center;verticalAlign=middle;whiteSpace=wrap;rounded=0;" parent="1" vertex="1">
          <mxGeometry x="-182.37" y="410" width="129.5" height="30" as="geometry" />
        </mxCell>
        <mxCell id="YyTxWso4TUa3Zfor6lMz-26" value="" style="html=1;verticalLabelPosition=bottom;align=center;labelBackgroundColor=#ffffff;verticalAlign=top;strokeWidth=2;strokeColor=#d79b00;shadow=0;dashed=0;shape=mxgraph.ios7.icons.data;fillColor=#ffe6cc;" parent="1" vertex="1">
          <mxGeometry x="135" y="200" width="50" height="60" as="geometry" />
        </mxCell>
        <mxCell id="YyTxWso4TUa3Zfor6lMz-27" value="" style="html=1;verticalLabelPosition=bottom;align=center;labelBackgroundColor=#ffffff;verticalAlign=top;strokeWidth=2;strokeColor=#666666;shadow=0;dashed=0;shape=mxgraph.ios7.icons.data;fillColor=#f5f5f5;fontColor=#333333;" parent="1" vertex="1">
          <mxGeometry x="414" y="200" width="50" height="60" as="geometry" />
        </mxCell>
        <mxCell id="YyTxWso4TUa3Zfor6lMz-28" value="" style="html=1;verticalLabelPosition=bottom;align=center;labelBackgroundColor=#ffffff;verticalAlign=top;strokeWidth=2;strokeColor=#d6b656;shadow=0;dashed=0;shape=mxgraph.ios7.icons.data;fillColor=#fff2cc;" parent="1" vertex="1">
          <mxGeometry x="695" y="200" width="50" height="60" as="geometry" />
        </mxCell>
        <mxCell id="YyTxWso4TUa3Zfor6lMz-29" value="" style="shape=singleArrow;whiteSpace=wrap;html=1;fillColor=#b1ddf0;strokeColor=#10739e;" parent="1" vertex="1">
          <mxGeometry x="-50" y="320" width="104.75" height="30" as="geometry" />
        </mxCell>
        <mxCell id="YyTxWso4TUa3Zfor6lMz-30" value="" style="shape=singleArrow;whiteSpace=wrap;html=1;fillColor=#b1ddf0;strokeColor=#10739e;" parent="1" vertex="1">
          <mxGeometry x="270" y="320" width="60" height="30" as="geometry" />
        </mxCell>
        <mxCell id="YyTxWso4TUa3Zfor6lMz-31" value="" style="shape=singleArrow;whiteSpace=wrap;html=1;fillColor=#b1ddf0;strokeColor=#10739e;" parent="1" vertex="1">
          <mxGeometry x="550" y="320" width="60" height="30" as="geometry" />
        </mxCell>
        <mxCell id="YyTxWso4TUa3Zfor6lMz-32" value="" style="shape=singleArrow;whiteSpace=wrap;html=1;fillColor=#b1ddf0;strokeColor=#10739e;" parent="1" vertex="1">
          <mxGeometry x="820" y="320" width="110" height="30" as="geometry" />
        </mxCell>
        <mxCell id="YyTxWso4TUa3Zfor6lMz-33" value="Raw Data" style="text;html=1;align=center;verticalAlign=middle;whiteSpace=wrap;rounded=0;" parent="1" vertex="1">
          <mxGeometry x="130" y="260" width="60" height="30" as="geometry" />
        </mxCell>
        <mxCell id="YyTxWso4TUa3Zfor6lMz-34" value="Cleaned, Standardised Data" style="text;html=1;align=center;verticalAlign=middle;whiteSpace=wrap;rounded=0;" parent="1" vertex="1">
          <mxGeometry x="375.5" y="260" width="130" height="30" as="geometry" />
        </mxCell>
        <mxCell id="YyTxWso4TUa3Zfor6lMz-35" value="Business-Ready Data" style="text;html=1;align=center;verticalAlign=middle;whiteSpace=wrap;rounded=0;" parent="1" vertex="1">
          <mxGeometry x="667.5" y="260" width="105" height="30" as="geometry" />
        </mxCell>
        <mxCell id="YyTxWso4TUa3Zfor6lMz-36" value="&lt;font style=&quot;font-size: 11px;&quot;&gt;&lt;b style=&quot;&quot;&gt;Object Type:&lt;/b&gt;&amp;nbsp;Tables&lt;/font&gt;" style="text;html=1;align=center;verticalAlign=middle;whiteSpace=wrap;rounded=0;" parent="1" vertex="1">
          <mxGeometry x="40" y="365" width="129.5" height="30" as="geometry" />
        </mxCell>
        <mxCell id="9ogJTAAQSPH0AJ43uOVb-1" value="" style="endArrow=none;html=1;rounded=0;strokeColor=#A4A4A4;" edge="1" parent="1">
          <mxGeometry width="50" height="50" relative="1" as="geometry">
            <mxPoint x="-192.62" y="360" as="sourcePoint" />
            <mxPoint x="-42.620000000000005" y="360" as="targetPoint" />
          </mxGeometry>
        </mxCell>
        <mxCell id="9ogJTAAQSPH0AJ43uOVb-2" value="" style="endArrow=none;html=1;rounded=0;strokeColor=#A4A4A4;" edge="1" parent="1">
          <mxGeometry width="50" height="50" relative="1" as="geometry">
            <mxPoint x="65" y="360" as="sourcePoint" />
            <mxPoint x="255" y="360.5" as="targetPoint" />
          </mxGeometry>
        </mxCell>
        <mxCell id="9ogJTAAQSPH0AJ43uOVb-7" value="" style="endArrow=none;html=1;rounded=0;strokeColor=#A4A4A4;" edge="1" parent="1">
          <mxGeometry width="50" height="50" relative="1" as="geometry">
            <mxPoint x="345" y="360" as="sourcePoint" />
            <mxPoint x="535" y="360.5" as="targetPoint" />
          </mxGeometry>
        </mxCell>
        <mxCell id="9ogJTAAQSPH0AJ43uOVb-8" value="" style="endArrow=none;html=1;rounded=0;strokeColor=#A4A4A4;" edge="1" parent="1">
          <mxGeometry width="50" height="50" relative="1" as="geometry">
            <mxPoint x="625" y="360" as="sourcePoint" />
            <mxPoint x="815" y="360.5" as="targetPoint" />
          </mxGeometry>
        </mxCell>
        <mxCell id="9ogJTAAQSPH0AJ43uOVb-9" value="&lt;font style=&quot;font-size: 11px;&quot;&gt;&lt;b style=&quot;&quot;&gt;Object Type:&lt;/b&gt;&amp;nbsp;Tables&lt;/font&gt;" style="text;html=1;align=center;verticalAlign=middle;whiteSpace=wrap;rounded=0;" vertex="1" parent="1">
          <mxGeometry x="320.5" y="365" width="129.5" height="30" as="geometry" />
        </mxCell>
        <mxCell id="9ogJTAAQSPH0AJ43uOVb-10" value="&lt;font style=&quot;font-size: 11px;&quot;&gt;&lt;b style=&quot;&quot;&gt;Object Type:&lt;/b&gt;&amp;nbsp;Views&lt;/font&gt;" style="text;html=1;align=center;verticalAlign=middle;whiteSpace=wrap;rounded=0;" vertex="1" parent="1">
          <mxGeometry x="600" y="365" width="129.5" height="30" as="geometry" />
        </mxCell>
        <mxCell id="9ogJTAAQSPH0AJ43uOVb-11" value="&amp;nbsp;&lt;br&gt;&lt;ul&gt;&lt;li&gt;Batch Processing&lt;/li&gt;&lt;li&gt;Full Load&lt;/li&gt;&lt;li&gt;Truncate &amp;amp; Insert&lt;/li&gt;&lt;/ul&gt;" style="text;html=1;align=center;verticalAlign=middle;whiteSpace=wrap;rounded=0;" vertex="1" parent="1">
          <mxGeometry x="40" y="410" width="155.25" height="30" as="geometry" />
        </mxCell>
        <mxCell id="9ogJTAAQSPH0AJ43uOVb-12" value="&lt;b&gt;Load:&lt;/b&gt;" style="text;html=1;align=center;verticalAlign=middle;whiteSpace=wrap;rounded=0;" vertex="1" parent="1">
          <mxGeometry x="40" y="395" width="60" height="15" as="geometry" />
        </mxCell>
        <mxCell id="9ogJTAAQSPH0AJ43uOVb-13" value="No &lt;b&gt;Transformations&lt;/b&gt;" style="text;html=1;align=center;verticalAlign=middle;whiteSpace=wrap;rounded=0;" vertex="1" parent="1">
          <mxGeometry x="70" y="470" width="120" height="20" as="geometry" />
        </mxCell>
        <mxCell id="9ogJTAAQSPH0AJ43uOVb-14" value="&lt;b&gt;Load:&lt;/b&gt;" style="text;html=1;align=center;verticalAlign=middle;whiteSpace=wrap;rounded=0;" vertex="1" parent="1">
          <mxGeometry x="320.5" y="395" width="60" height="15" as="geometry" />
        </mxCell>
        <mxCell id="9ogJTAAQSPH0AJ43uOVb-15" value="&lt;b&gt;Transformation:&lt;/b&gt;" style="text;html=1;align=center;verticalAlign=middle;whiteSpace=wrap;rounded=0;" vertex="1" parent="1">
          <mxGeometry x="320.5" y="460" width="106" height="20" as="geometry" />
        </mxCell>
        <mxCell id="9ogJTAAQSPH0AJ43uOVb-16" value="No &lt;b&gt;Load&lt;/b&gt;" style="text;html=1;align=center;verticalAlign=middle;whiteSpace=wrap;rounded=0;" vertex="1" parent="1">
          <mxGeometry x="610" y="395" width="60" height="15" as="geometry" />
        </mxCell>
        <mxCell id="9ogJTAAQSPH0AJ43uOVb-17" value="&lt;b&gt;Data Model:&lt;/b&gt;" style="text;html=1;align=center;verticalAlign=middle;whiteSpace=wrap;rounded=0;" vertex="1" parent="1">
          <mxGeometry x="610" y="495" width="80" height="20" as="geometry" />
        </mxCell>
        <mxCell id="9ogJTAAQSPH0AJ43uOVb-19" value="&amp;nbsp;&lt;br&gt;&lt;ul&gt;&lt;li&gt;Batch Processing&lt;/li&gt;&lt;li&gt;Full Load&lt;/li&gt;&lt;li&gt;Truncate &amp;amp; Insert&lt;/li&gt;&lt;/ul&gt;" style="text;html=1;align=center;verticalAlign=middle;whiteSpace=wrap;rounded=0;" vertex="1" parent="1">
          <mxGeometry x="322.37" y="410" width="155.25" height="30" as="geometry" />
        </mxCell>
        <mxCell id="9ogJTAAQSPH0AJ43uOVb-20" value="&amp;nbsp;&lt;br&gt;&lt;ul&gt;&lt;li&gt;Data Cleaning&lt;/li&gt;&lt;li&gt;Data Standardization&lt;/li&gt;&lt;li&gt;Data Normalization&lt;/li&gt;&lt;li&gt;Derived Columns&lt;/li&gt;&lt;li&gt;Data Enrichment&lt;/li&gt;&lt;/ul&gt;" style="text;html=1;align=center;verticalAlign=middle;whiteSpace=wrap;rounded=0;" vertex="1" parent="1">
          <mxGeometry x="330" y="495" width="155.25" height="30" as="geometry" />
        </mxCell>
        <mxCell id="9ogJTAAQSPH0AJ43uOVb-21" value="&amp;nbsp;&lt;br&gt;&lt;ul&gt;&lt;li&gt;Data Integration&lt;/li&gt;&lt;li&gt;Aggregation&lt;/li&gt;&lt;li&gt;Business Logics&lt;/li&gt;&lt;/ul&gt;" style="text;html=1;align=center;verticalAlign=middle;whiteSpace=wrap;rounded=0;" vertex="1" parent="1">
          <mxGeometry x="600" y="440" width="155.25" height="30" as="geometry" />
        </mxCell>
        <mxCell id="9ogJTAAQSPH0AJ43uOVb-22" value="&amp;nbsp;&lt;br&gt;&lt;ul&gt;&lt;li&gt;Star Schema&lt;/li&gt;&lt;li&gt;Flat Table&lt;/li&gt;&lt;li&gt;Aggregated Table&lt;/li&gt;&lt;/ul&gt;" style="text;html=1;align=center;verticalAlign=middle;whiteSpace=wrap;rounded=0;" vertex="1" parent="1">
          <mxGeometry x="600" y="515" width="155.25" height="30" as="geometry" />
        </mxCell>
        <mxCell id="9ogJTAAQSPH0AJ43uOVb-23" value="&lt;b&gt;Data Model:&lt;/b&gt; None (as-is)" style="text;html=1;align=center;verticalAlign=middle;whiteSpace=wrap;rounded=0;" vertex="1" parent="1">
          <mxGeometry x="40" y="500" width="172.37" height="20" as="geometry" />
        </mxCell>
        <mxCell id="9ogJTAAQSPH0AJ43uOVb-24" value="&lt;b&gt;Data Model:&lt;/b&gt; None (as-is)" style="text;html=1;align=center;verticalAlign=middle;whiteSpace=wrap;rounded=0;" vertex="1" parent="1">
          <mxGeometry x="320.5" y="570" width="172.37" height="20" as="geometry" />
        </mxCell>
        <mxCell id="9ogJTAAQSPH0AJ43uOVb-25" value="&lt;b&gt;Transformation:&lt;/b&gt;" style="text;html=1;align=center;verticalAlign=middle;whiteSpace=wrap;rounded=0;" vertex="1" parent="1">
          <mxGeometry x="610" y="420" width="106" height="20" as="geometry" />
        </mxCell>
        <mxCell id="9ogJTAAQSPH0AJ43uOVb-26" value="Power BI &amp;amp;&lt;br&gt;Reporting&lt;div&gt;&lt;br&gt;&lt;/div&gt;" style="image;aspect=fixed;html=1;points=[];align=center;fontSize=12;image=img/lib/azure2/analytics/Power_BI_Embedded.svg;" vertex="1" parent="1">
          <mxGeometry x="930" y="200" width="51" height="68" as="geometry" />
        </mxCell>
        <mxCell id="9ogJTAAQSPH0AJ43uOVb-27" value="" style="points=[];aspect=fixed;html=1;align=center;shadow=0;dashed=0;fillColor=#FF6A00;strokeColor=none;shape=mxgraph.alibaba_cloud.machine_learning;" vertex="1" parent="1">
          <mxGeometry x="960" y="360" width="49.8" height="50.099999999999994" as="geometry" />
        </mxCell>
        <mxCell id="9ogJTAAQSPH0AJ43uOVb-28" value="Ad-hoc&amp;nbsp;&lt;br&gt;SQL Query" style="sketch=0;html=1;aspect=fixed;strokeColor=none;shadow=0;fillColor=#3B8DF1;verticalAlign=top;labelPosition=center;verticalLabelPosition=bottom;shape=mxgraph.gcp2.big_query" vertex="1" parent="1">
          <mxGeometry x="960" y="470" width="69.3" height="70" as="geometry" />
        </mxCell>
        <mxCell id="9ogJTAAQSPH0AJ43uOVb-29" value="" style="verticalLabelPosition=bottom;sketch=0;aspect=fixed;html=1;verticalAlign=top;strokeColor=none;align=center;outlineConnect=0;shape=mxgraph.citrix.reporting;" vertex="1" parent="1">
          <mxGeometry x="988.5" y="211" width="61.5" height="69" as="geometry" />
        </mxCell>
        <mxCell id="9ogJTAAQSPH0AJ43uOVb-31" value="" style="sketch=0;pointerEvents=1;shadow=0;dashed=0;html=1;strokeColor=none;fillColor=#DF8C42;labelPosition=center;verticalLabelPosition=bottom;verticalAlign=top;align=center;outlineConnect=0;shape=mxgraph.veeam2.microsoft_sql;" vertex="1" parent="1">
          <mxGeometry y="86" width="60" height="34" as="geometry" />
        </mxCell>
        <mxCell id="9ogJTAAQSPH0AJ43uOVb-32" value="SQL Server" style="text;html=1;align=center;verticalAlign=middle;whiteSpace=wrap;rounded=0;" vertex="1" parent="1">
          <mxGeometry x="60" y="90" width="90" height="30" as="geometry" />
        </mxCell>
        <mxCell id="9ogJTAAQSPH0AJ43uOVb-33" value="&lt;font style=&quot;font-size: 30px;&quot;&gt;&lt;b&gt;Data Architecture&lt;/b&gt;&lt;/font&gt;" style="text;html=1;align=center;verticalAlign=middle;whiteSpace=wrap;rounded=0;" vertex="1" parent="1">
          <mxGeometry x="130" y="40" width="310" height="30" as="geometry" />
        </mxCell>
      </root>
    </mxGraphModel>
  </diagram>
</mxfile>
